<svg xmlns="http://www.w3.org/2000/svg" viewBox="0 0 361.59 92.86"><defs><style>.cls-1{fill:#231f20;}.cls-2{fill:#be1e2d;}</style></defs><title>Asset 1</title><g id="Layer_2" data-name="Layer 2"><g id="Layer_1-2" data-name="Layer 1"><path class="cls-1" d="M108.38,89V37.08H130a13.83,13.83,0,0,1,6.28,1.42,16.5,16.5,0,0,1,5,3.8,17.84,17.84,0,0,1,3.29,5.34,16.25,16.25,0,0,1,1.17,6,17.92,17.92,0,0,1-1.9,8.07A16.16,16.16,0,0,1,138.49,68a13.76,13.76,0,0,1-8,2.38H115V89ZM115,64.48h15.13A7.82,7.82,0,0,0,134.79,63a9.86,9.86,0,0,0,3.15-4,12.93,12.93,0,0,0,1.13-5.4,11.43,11.43,0,0,0-1.32-5.52,10.33,10.33,0,0,0-3.43-3.84,8.39,8.39,0,0,0-4.68-1.39H115Z"/><path class="cls-1" d="M155.15,37.08l15.71,27,15.85-27h7.17L174.15,70V89h-6.58V69.89L147.91,37.08Z"/><path class="cls-1" d="M238.45,42.92h-17.9V89H214v-46h-17.9V37.08h42.38Z"/><path class="cls-1" d="M287.63,37.08V89h-6.57V65.36H252.48V89h-6.57V37.08h6.57V59.51h28.58V37.08Z"/><path class="cls-1" d="M300.06,89V37.08h6.57V89Z"/><path class="cls-1" d="M334.84,37.08h5.55L361.59,89h-7l-5.82-15.2H326.43L320.59,89h-7Zm12,31.57-9.17-24-9.22,24Z"/><path class="cls-2" d="M55.89,59.18H45.24l3.7-17.43H59.15a3.83,3.83,0,0,1,2.25.68A4.84,4.84,0,0,1,63,44.5,8.52,8.52,0,0,1,63.66,48a14.9,14.9,0,0,1-.68,4.7,10.89,10.89,0,0,1-1.85,3.52,8.93,8.93,0,0,1-2.53,2.21A5.45,5.45,0,0,1,55.89,59.18Z"/><path class="cls-2" d="M92.86,17.13V84.62a8.23,8.23,0,0,1-8.24,8.24H38l4.34-20.68H54.09A21.33,21.33,0,0,0,63.71,70a26.4,26.4,0,0,0,7.85-5.91,29.32,29.32,0,0,0,5.33-8.18,22.47,22.47,0,0,0,1.94-9.07,20.71,20.71,0,0,0-1.89-8.67,17.1,17.1,0,0,0-5.47-6.78,14.06,14.06,0,0,0-8.53-2.62H36.84L23.2,92.86h-15A8.23,8.23,0,0,1,0,84.62V42.72A42.72,42.72,0,0,1,42.72,0h33A17.13,17.13,0,0,1,92.86,17.13Z"/></g></g></svg>