<svg xmlns="http://www.w3.org/2000/svg" viewBox="0 0 359.85 92.86"><defs><style>.cls-1{fill:#231f20;}.cls-2{fill:#be1e2d;}</style></defs><title>Asset 41</title><g id="Layer_2" data-name="Layer 2"><g id="Layer_1-2" data-name="Layer 1"><path class="cls-1" d="M106.64,77.25V25.36h21.63a13.88,13.88,0,0,1,6.29,1.43,16.46,16.46,0,0,1,5,3.8,17.79,17.79,0,0,1,3.29,5.33A16.44,16.44,0,0,1,144,42a17.86,17.86,0,0,1-1.9,8.07,16.09,16.09,0,0,1-5.33,6.22,13.81,13.81,0,0,1-8,2.37H113.22V77.25Zm6.58-24.49h15.13a7.76,7.76,0,0,0,4.71-1.46,9.72,9.72,0,0,0,3.14-3.94A12.82,12.82,0,0,0,137.33,42,11.43,11.43,0,0,0,136,36.43a10.24,10.24,0,0,0-3.44-3.83,8.31,8.31,0,0,0-4.67-1.39H113.22Z"/><path class="cls-1" d="M153.41,25.36l15.71,27,15.86-27h7.16l-19.73,33V77.25h-6.58V58.17L146.18,25.36Z"/><path class="cls-1" d="M236.72,31.21H218.81v46h-6.57v-46H194.33V25.36h42.39Z"/><path class="cls-1" d="M285.9,25.36V77.25h-6.58V53.64H250.75V77.25h-6.58V25.36h6.58V47.8h28.57V25.36Z"/><path class="cls-1" d="M298.32,77.25V25.36h6.58V77.25Z"/><path class="cls-1" d="M333.11,25.36h5.55l21.19,51.89h-7L347,62.05H324.7l-5.84,15.2h-7Zm11.95,31.57-9.18-24-9.21,24Z"/><path class="cls-2" d="M55.89,59.18H45.24l3.7-17.43H59.15a3.83,3.83,0,0,1,2.25.68A4.84,4.84,0,0,1,63,44.5,8.52,8.52,0,0,1,63.66,48a14.9,14.9,0,0,1-.68,4.7,10.89,10.89,0,0,1-1.85,3.52,8.93,8.93,0,0,1-2.53,2.21A5.45,5.45,0,0,1,55.89,59.18Z"/><path class="cls-2" d="M92.86,17.13V84.62a8.23,8.23,0,0,1-8.24,8.24H38l4.34-20.68H54.09A21.33,21.33,0,0,0,63.71,70a26.4,26.4,0,0,0,7.85-5.91,29.32,29.32,0,0,0,5.33-8.18,22.47,22.47,0,0,0,1.94-9.07,20.71,20.71,0,0,0-1.89-8.67,17.1,17.1,0,0,0-5.47-6.78,14.06,14.06,0,0,0-8.53-2.62H36.84L23.2,92.86h-15A8.23,8.23,0,0,1,0,84.62V42.72A42.72,42.72,0,0,1,42.72,0h33A17.13,17.13,0,0,1,92.86,17.13Z"/></g></g></svg>